<svg width="49" height="49" viewBox="0 0 49 49" fill="none" xmlns="http://www.w3.org/2000/svg">
<path d="M19.8967 43.6119C16.9682 43.6119 14.5947 41.2289 14.5947 38.31C14.5947 35.3814 16.9777 33.008 19.8967 33.008C22.8252 33.008 25.1986 35.391 25.1986 38.31C25.2082 41.2385 22.8252 43.6119 19.8967 43.6119ZM19.8967 35.0273C18.0879 35.0273 16.6141 36.5012 16.6141 38.31C16.6141 40.1188 18.0879 41.5926 19.8967 41.5926C21.7055 41.5926 23.1793 40.1188 23.1793 38.31C23.1793 36.5012 21.715 35.0273 19.8967 35.0273Z" fill="#6A6E7C"/>
<path d="M34.9317 43.6119C32.0032 43.6119 29.6298 41.2289 29.6298 38.31C29.6298 35.3814 32.0128 33.008 34.9317 33.008C37.8507 33.008 40.2337 35.391 40.2337 38.31C40.2337 41.2385 37.8602 43.6119 34.9317 43.6119ZM34.9317 35.0273C33.1229 35.0273 31.6491 36.5012 31.6491 38.31C31.6491 40.1188 33.1229 41.5926 34.9317 41.5926C36.7405 41.5926 38.2143 40.1188 38.2143 38.31C38.2143 36.5012 36.7405 35.0273 34.9317 35.0273Z" fill="#6A6E7C"/>
<path d="M40.1666 34.5201H14.6617C14.1928 34.5201 13.7908 34.2043 13.6855 33.7449L7.28301 7.40742H1.00488C0.449805 7.40742 0 6.94804 0 6.39297C0 5.83789 0.449805 5.38808 1.00488 5.38808H8.07734C8.54629 5.38808 8.94824 5.7039 9.05352 6.16328L11.0633 14.432H47.9855C48.3301 14.432 48.6459 14.6043 48.8277 14.8914C49.0096 15.1785 49.0479 15.5326 48.9139 15.8484L41.0949 33.9268C40.9322 34.2809 40.5686 34.5201 40.1666 34.5201ZM15.4561 32.5008H39.5062L46.4543 16.4418H11.5609L15.4561 32.5008Z" fill="#6A6E7C"/>
</svg>
