<svg width="37" height="37" viewBox="0 0 37 37" fill="none" xmlns="http://www.w3.org/2000/svg">
<path d="M18.0132 19.808C12.6937 19.808 8.36633 15.3637 8.36633 9.90039C8.36633 4.43711 12.6937 0 18.0132 0C23.3327 0 27.6601 4.44434 27.6601 9.90762C27.6601 15.3709 23.3327 19.808 18.0132 19.808ZM18.0132 1.47422C13.4888 1.47422 9.80879 5.25371 9.80879 9.90039C9.80879 14.5471 13.4888 18.3338 18.0132 18.3338C22.5376 18.3338 26.2177 14.5543 26.2177 9.90762C26.2177 5.26094 22.5376 1.47422 18.0132 1.47422Z" fill="#6A6E7C"/>
<path d="M34.7527 37C34.3587 37 34.035 36.6676 34.035 36.2629C34.035 27.1936 26.8509 19.8152 18.0202 19.8152C9.18952 19.8152 2.00537 27.1936 2.00537 36.2629C2.00537 36.6676 1.6817 37 1.28766 37C0.89362 37 0.569946 36.6676 0.569946 36.2629C0.569946 31.4717 2.38533 26.9695 5.6854 23.5875C8.98547 20.2055 13.3691 18.3338 18.0272 18.3338C22.6853 18.3338 27.076 20.1982 30.3691 23.5875C33.6621 26.9768 35.4845 31.4789 35.4845 36.2629C35.4704 36.6676 35.1468 37 34.7527 37Z" fill="#6A6E7C"/>
</svg>
