<svg width="35" height="40" viewBox="0 0 35 40" fill="none" xmlns="http://www.w3.org/2000/svg">
<path d="M14.5938 15.7891L22.0312 20.0156L14.5938 24.2422V15.7891ZM35 6.25V33.75C35 35.8203 33.3203 37.5 31.25 37.5H3.75C1.67969 37.5 0 35.8203 0 33.75V6.25C0 4.17969 1.67969 2.5 3.75 2.5H31.25C33.3203 2.5 35 4.17969 35 6.25ZM31.7188 20.0234C31.7188 20.0234 31.7188 15.3672 31.125 13.1328C30.7969 11.8984 29.8359 10.9297 28.6094 10.6016C26.3984 10 17.5 10 17.5 10C17.5 10 8.60156 10 6.39062 10.6016C5.16406 10.9297 4.20312 11.8984 3.875 13.1328C3.28125 15.3594 3.28125 20.0234 3.28125 20.0234C3.28125 20.0234 3.28125 24.6797 3.875 26.9141C4.20312 28.1484 5.16406 29.0781 6.39062 29.4062C8.60156 30 17.5 30 17.5 30C17.5 30 26.3984 30 28.6094 29.3984C29.8359 29.0703 30.7969 28.1406 31.125 26.9062C31.7188 24.6797 31.7188 20.0234 31.7188 20.0234Z" fill="white"/>
</svg>
